<svg width="40" height="40" viewBox="0 0 40 40" fill="none" xmlns="http://www.w3.org/2000/svg">
<mask id="mask0_3_564" style="mask-type:luminance" maskUnits="userSpaceOnUse" x="0" y="0" width="40" height="40">
<path d="M0 0H40V40H0V0Z" fill="white"/>
</mask>
<g mask="url(#mask0_3_564)">
<path d="M40.0035 20.0009C40.0035 20.3281 39.9948 20.6554 39.9792 20.9826C39.9627 21.3099 39.9392 21.6363 39.9071 21.9618C39.875 22.2873 39.8342 22.612 39.7865 22.9358C39.7387 23.2595 39.6823 23.5825 39.6189 23.9036C39.5547 24.224 39.4835 24.5434 39.4036 24.8611C39.3238 25.1788 39.237 25.4939 39.1415 25.8073C39.0469 26.1207 38.9444 26.4314 38.8342 26.7396C38.724 27.0477 38.6059 27.3533 38.4809 27.6554C38.355 27.9575 38.2222 28.2569 38.0825 28.553C37.9427 28.849 37.796 29.1415 37.6415 29.4297C37.487 29.7188 37.3255 30.0035 37.1571 30.2839C36.9887 30.5651 36.8142 30.8411 36.6319 31.1137C36.4505 31.3854 36.2622 31.6528 36.0668 31.9158C35.8715 32.1788 35.6701 32.4366 35.4627 32.6901C35.2552 32.9427 35.0417 33.191 34.8221 33.4332C34.6016 33.6762 34.3759 33.9132 34.145 34.1441C33.9132 34.3759 33.6762 34.6016 33.434 34.8212C33.191 35.0408 32.9436 35.2552 32.6901 35.4627C32.4375 35.6701 32.1797 35.8715 31.9167 36.0668C31.6536 36.2613 31.3863 36.4497 31.1137 36.6319C30.842 36.8134 30.5651 36.9887 30.2847 37.1571C30.0035 37.3255 29.7188 37.487 29.4306 37.6406C29.1415 37.7951 28.849 37.9427 28.553 38.0825C28.2569 38.2222 27.9583 38.355 27.6554 38.48C27.3533 38.605 27.0477 38.7231 26.7396 38.8333C26.4314 38.9436 26.1207 39.046 25.8073 39.1415C25.4948 39.2361 25.1788 39.3238 24.8611 39.4036C24.5443 39.4826 24.2248 39.5547 23.9036 39.6181C23.5825 39.6823 23.2604 39.7378 22.9366 39.7865C22.6128 39.8342 22.2882 39.8741 21.9618 39.9063C21.6363 39.9384 21.3099 39.9627 20.9826 39.9783C20.6563 39.9948 20.329 40.0026 20.0017 40.0026C19.6745 40.0026 19.3472 39.9948 19.02 39.9783C18.6936 39.9627 18.3672 39.9384 18.0408 39.9063C17.7153 39.8741 17.3906 39.8342 17.0668 39.7865C16.7431 39.7378 16.4201 39.6823 16.0998 39.6181C15.7786 39.5547 15.4592 39.4826 15.1415 39.4036C14.8238 39.3238 14.5087 39.2361 14.1953 39.1415C13.8819 39.046 13.5712 38.9436 13.263 38.8333C12.9549 38.7231 12.6493 38.605 12.3472 38.48C12.0451 38.355 11.7457 38.2222 11.4497 38.0825C11.1536 37.9427 10.862 37.7951 10.5729 37.6406C10.2839 37.487 9.99913 37.3255 9.71875 37.1571C9.4375 36.9887 9.16146 36.8134 8.88889 36.6319C8.61719 36.4497 8.34983 36.2613 8.08681 36.0668C7.82379 35.8715 7.56597 35.6701 7.3125 35.4627C7.0599 35.2552 6.81163 35.0408 6.56944 34.8212C6.32639 34.6016 6.08941 34.3759 5.85851 34.1441C5.62674 33.9132 5.40104 33.6762 5.18142 33.4332C4.96181 33.191 4.7474 32.9427 4.53993 32.6901C4.33247 32.4366 4.13108 32.1788 3.93576 31.9158C3.74132 31.6528 3.55295 31.3854 3.37066 31.1137C3.18924 30.8411 3.01389 30.5651 2.84549 30.2839C2.67708 30.0035 2.51649 29.7188 2.36198 29.4297C2.20747 29.1415 2.0599 28.849 1.92014 28.553C1.78038 28.2569 1.64757 27.9575 1.52257 27.6554C1.39757 27.3533 1.27951 27.0477 1.16927 26.7396C1.05903 26.4314 0.956597 26.1207 0.861111 25.8073C0.766493 25.4939 0.678819 25.1788 0.599826 24.8611C0.519965 24.5434 0.447917 24.224 0.384549 23.9036C0.320312 23.5825 0.264757 23.2595 0.216146 22.9358C0.168403 22.612 0.128472 22.2873 0.0963542 21.9618C0.0642362 21.6363 0.0399304 21.3099 0.0243056 20.9826C0.00781244 20.6554 0 20.3281 0 20.0009C0 19.6736 0.00781244 19.3464 0.0243056 19.02C0.0399304 18.6927 0.0642362 18.3663 0.0963542 18.0408C0.128472 17.7153 0.168403 17.3898 0.216146 17.066C0.264757 16.7422 0.320312 16.4201 0.384549 16.099C0.447917 15.7778 0.519965 15.4583 0.599826 15.1415C0.678819 14.8238 0.766493 14.5078 0.861111 14.1953C0.956597 13.8819 1.05903 13.5712 1.16927 13.263C1.27951 12.9549 1.39757 12.6493 1.52257 12.3472C1.64757 12.0443 1.78038 11.7457 1.92014 11.4497C2.0599 11.1536 2.20747 10.8611 2.36198 10.572C2.51649 10.2839 2.67708 9.99913 2.84549 9.71788C3.01389 9.4375 3.18924 9.16146 3.37066 8.88889C3.55295 8.61632 3.74132 8.34896 3.93576 8.08594C4.13108 7.82292 4.33247 7.5651 4.53993 7.3125C4.7474 7.05903 4.96181 6.81163 5.18142 6.56858C5.40104 6.32639 5.62674 6.08941 5.85851 5.85764C6.08941 5.62674 6.32639 5.40104 6.56944 5.18056C6.81163 4.96094 7.0599 4.7474 7.3125 4.53993C7.56597 4.33247 7.82379 4.13108 8.08681 3.93576C8.34983 3.74045 8.61719 3.55208 8.88889 3.37066C9.16146 3.18837 9.4375 3.01389 9.71875 2.84549C9.99913 2.67708 10.2839 2.51562 10.5729 2.36111C10.862 2.20747 11.1536 2.0599 11.4497 1.92014C11.7457 1.78038 12.0451 1.64757 12.3472 1.52257C12.6493 1.3967 12.9549 1.27951 13.263 1.1684C13.5712 1.05816 13.8819 0.955729 14.1953 0.861111C14.5087 0.765625 14.8238 0.678819 15.1415 0.598958C15.4592 0.519097 15.7786 0.447917 16.0998 0.383681C16.4201 0.320313 16.7431 0.263889 17.0668 0.216146C17.3906 0.168403 17.7153 0.127604 18.0408 0.0963542C18.3672 0.0642362 18.6936 0.0399304 19.02 0.0234375C19.3472 0.00781239 19.6745 0 20.0017 0C20.329 0 20.6563 0.00781239 20.9826 0.0234375C21.3099 0.0399304 21.6363 0.0642362 21.9618 0.0963542C22.2882 0.127604 22.6128 0.168403 22.9366 0.216146C23.2604 0.263889 23.5825 0.320313 23.9036 0.383681C24.2248 0.447917 24.5443 0.519097 24.8611 0.598958C25.1788 0.678819 25.4948 0.765625 25.8073 0.861111C26.1207 0.955729 26.4314 1.05816 26.7396 1.1684C27.0477 1.27951 27.3533 1.3967 27.6554 1.52257C27.9583 1.64757 28.2569 1.78038 28.553 1.92014C28.849 2.0599 29.1415 2.20747 29.4306 2.36111C29.7188 2.51562 30.0035 2.67708 30.2847 2.84549C30.5651 3.01389 30.842 3.18837 31.1137 3.37066C31.3863 3.55208 31.6536 3.74045 31.9167 3.93576C32.1797 4.13108 32.4375 4.33247 32.6901 4.53993C32.9436 4.7474 33.191 4.96094 33.434 5.18056C33.6762 5.40104 33.9132 5.62674 34.145 5.85764C34.3759 6.08941 34.6016 6.32639 34.8221 6.56858C35.0417 6.81163 35.2552 7.05903 35.4627 7.3125C35.6701 7.5651 35.8715 7.82292 36.0668 8.08594C36.2622 8.34896 36.4505 8.61632 36.6319 8.88889C36.8142 9.16146 36.9887 9.4375 37.1571 9.71788C37.3255 9.99913 37.487 10.2839 37.6415 10.572C37.796 10.8611 37.9427 11.1536 38.0825 11.4497C38.2222 11.7457 38.355 12.0443 38.4809 12.3472C38.6059 12.6493 38.724 12.9549 38.8342 13.263C38.9444 13.5712 39.0469 13.8819 39.1415 14.1953C39.237 14.5078 39.3238 14.8238 39.4036 15.1415C39.4835 15.4583 39.5547 15.7778 39.6189 16.099C39.6823 16.4201 39.7387 16.7422 39.7865 17.066C39.8342 17.3898 39.875 17.7153 39.9071 18.0408C39.9392 18.3663 39.9627 18.6927 39.9792 19.02C39.9948 19.3464 40.0035 19.6736 40.0035 20.0009Z" fill="#FF9561"/>
</g>
<path d="M25.1181 8.79254C24.1034 4.89757 12.5296 3.35504 10.9888 12.6372C9.44886 21.9193 3.9992 29.6615 16.2874 31.5399C28.5756 33.4193 31.2058 28.8724 30.4549 22.8976C29.7032 16.9219 28.3126 8.44185 25.1181 8.79254Z" fill="#002C5C"/>
<mask id="mask1_3_564" style="mask-type:luminance" maskUnits="userSpaceOnUse" x="5" y="24" width="30" height="16">
<path d="M5.63623 24.2335H34.5251V40H5.63623V24.2335Z" fill="white"/>
</mask>
<g mask="url(#mask1_3_564)">
<path d="M34.3612 33.9367C34.1286 34.1762 33.8907 34.4097 33.6468 34.6372C33.402 34.8646 33.1529 35.086 32.8977 35.3012C32.6425 35.5156 32.3821 35.7248 32.1164 35.9262C31.8508 36.1285 31.58 36.3238 31.3048 36.5122C31.0296 36.7005 30.7492 36.882 30.4645 37.0564C30.1807 37.2309 29.8916 37.3985 29.5991 37.5582C29.3057 37.7188 29.0097 37.8707 28.7093 38.0165C28.4081 38.1615 28.1043 38.2986 27.797 38.4288C27.4897 38.559 27.1798 38.6814 26.8656 38.796C26.5522 38.9097 26.2362 39.0165 25.9176 39.1155C25.5991 39.2136 25.2779 39.3047 24.9541 39.3872C24.6312 39.4696 24.3057 39.5443 23.9784 39.6103C23.652 39.6771 23.323 39.7353 22.9932 39.7847C22.6633 39.8351 22.3326 39.8768 22.0001 39.9097C21.6685 39.9427 21.3352 39.9679 21.0018 39.9844C20.6685 40.0018 20.3352 40.0096 20.0018 40.0096C19.6676 40.0096 19.3343 40.0018 19.001 39.9844C18.6676 39.9679 18.3352 39.9427 18.0027 39.9097C17.6711 39.8768 17.3404 39.8351 17.0097 39.7847C16.6798 39.7353 16.3517 39.6771 16.0244 39.6103C15.6972 39.5443 15.3725 39.4696 15.0487 39.3872C14.7258 39.3047 14.4046 39.2136 14.086 39.1155C13.7666 39.0165 13.4506 38.9097 13.1373 38.796C12.8239 38.6814 12.5131 38.559 12.2058 38.4288C11.8985 38.2986 11.5947 38.1615 11.2944 38.0165C10.994 37.8707 10.6972 37.7188 10.4046 37.5582C10.1112 37.3985 9.82303 37.2309 9.5383 37.0564C9.25358 36.882 8.97407 36.7005 8.69889 36.5122C8.42285 36.3238 8.15289 36.1285 7.88726 35.9262C7.62164 35.7248 7.36122 35.5156 7.10601 35.3012C6.8508 35.086 6.6008 34.8646 6.35688 34.6372C6.11296 34.4097 5.87424 34.1762 5.6416 33.9367C5.79004 33.586 5.95063 33.2413 6.12424 32.9028C6.29698 32.5643 6.48275 32.2327 6.68066 31.9071C6.87771 31.5816 7.08778 31.2648 7.30827 30.9549C7.52875 30.645 7.76139 30.3438 8.00358 30.0512C8.24664 29.7578 8.50011 29.4748 8.764 29.2005C9.02789 28.9262 9.30132 28.6615 9.58431 28.4071C9.8673 28.1528 10.159 27.9097 10.4602 27.6771C10.7605 27.4436 11.0696 27.2222 11.3873 27.0122C11.7041 26.8021 12.0288 26.6033 12.3604 26.4167C12.6919 26.2301 13.0296 26.0564 13.3742 25.8941C13.718 25.7327 14.0678 25.5834 14.4237 25.4479C14.7788 25.3117 15.139 25.1884 15.5027 25.079C15.8673 24.9688 16.2354 24.8724 16.606 24.7899C16.9775 24.7066 17.3517 24.638 17.7275 24.5825C18.1043 24.5269 18.4819 24.4853 18.8621 24.4575C19.2414 24.4297 19.6208 24.4158 20.0018 24.4158C20.3821 24.4158 20.7623 24.4297 21.1416 24.4575C21.5209 24.4853 21.8985 24.5269 22.2753 24.5825C22.652 24.638 23.0253 24.7066 23.3968 24.7899C23.7683 24.8724 24.1364 24.9688 24.5001 25.079C24.8647 25.1884 25.2241 25.3117 25.58 25.4479C25.935 25.5834 26.2848 25.7327 26.6295 25.8941C26.9732 26.0564 27.3117 26.2301 27.6433 26.4167C27.9749 26.6033 28.2996 26.8021 28.6164 27.0122C28.9333 27.2222 29.2423 27.4436 29.5435 27.6771C29.8439 27.9097 30.1364 28.1528 30.4194 28.4071C30.7024 28.6615 30.9758 28.9262 31.2397 29.2005C31.5027 29.4748 31.7562 29.7578 31.9992 30.0512C32.2423 30.3438 32.4741 30.645 32.6954 30.9549C32.9159 31.2648 33.1251 31.5816 33.323 31.9071C33.5201 32.2327 33.7058 32.5643 33.8795 32.9028C34.0522 33.2413 34.2137 33.586 34.3612 33.9367Z" fill="#00669B"/>
</g>
<path d="M19.9938 20.0009C20.1787 20.0009 20.3619 20.0191 20.5433 20.0556C20.7247 20.0911 20.9001 20.145 21.0711 20.2153C21.2421 20.2865 21.4044 20.3733 21.5581 20.4757C21.7117 20.5781 21.8541 20.6953 21.9852 20.8264C22.1162 20.9566 22.2326 21.099 22.335 21.2526C22.4383 21.4063 22.5251 21.5686 22.5954 21.7396C22.6666 21.9106 22.7195 22.0868 22.756 22.2682C22.7916 22.4497 22.8098 22.6328 22.8098 22.8177V25.3012C22.8098 25.4861 22.7916 25.6693 22.756 25.8507C22.7195 26.0321 22.6666 26.2083 22.5954 26.3793C22.5251 26.5503 22.4383 26.7127 22.335 26.8663C22.2326 27.02 22.1162 27.1623 21.9852 27.2934C21.8541 27.4236 21.7117 27.5408 21.5581 27.6432C21.4044 27.7457 21.2421 27.8325 21.0711 27.9036C20.9001 27.974 20.7247 28.0278 20.5433 28.0634C20.3619 28.0998 20.1787 28.1181 19.9938 28.1181C19.8089 28.1181 19.6258 28.0998 19.4444 28.0634C19.2629 28.0278 19.0867 27.974 18.9157 27.9036C18.7447 27.8325 18.5824 27.7457 18.4287 27.6432C18.2751 27.5408 18.1327 27.4236 18.0025 27.2934C17.8714 27.1623 17.7543 27.02 17.6518 26.8663C17.5494 26.7127 17.4626 26.5503 17.3914 26.3793C17.3211 26.2083 17.2673 26.0321 17.2317 25.8507C17.1952 25.6693 17.177 25.4861 17.177 25.3012V22.8177C17.177 22.6328 17.1952 22.4497 17.2317 22.2682C17.2673 22.0868 17.3211 21.9106 17.3914 21.7396C17.4626 21.5686 17.5494 21.4063 17.6518 21.2526C17.7543 21.099 17.8714 20.9566 18.0025 20.8264C18.1327 20.6953 18.2751 20.5781 18.4287 20.4757C18.5824 20.3733 18.7447 20.2865 18.9157 20.2153C19.0867 20.145 19.2629 20.0911 19.4444 20.0556C19.6258 20.0191 19.8089 20.0009 19.9938 20.0009Z" fill="#FF9561"/>
<path d="M14.8602 18.2283C14.8602 18.3446 14.8489 18.4601 14.8263 18.5747C14.8038 18.6884 14.7699 18.7995 14.7248 18.908C14.6805 19.0156 14.6258 19.1181 14.5607 19.2144C14.4965 19.3116 14.4227 19.4011 14.3402 19.4835C14.2578 19.566 14.1683 19.6398 14.0711 19.7049C13.9739 19.7691 13.8715 19.8238 13.7638 19.8689C13.6562 19.9132 13.5451 19.9471 13.4305 19.9696C13.3168 19.9922 13.2005 20.0044 13.0841 20.0044C12.9678 20.0044 12.8524 19.9922 12.7378 19.9696C12.6232 19.9471 12.5121 19.9132 12.4045 19.8689C12.2968 19.8238 12.1944 19.7691 12.0972 19.7049C12.0008 19.6398 11.9105 19.566 11.8281 19.4835C11.7456 19.4011 11.6727 19.3116 11.6076 19.2144C11.5425 19.1181 11.4878 19.0156 11.4435 18.908C11.3984 18.7995 11.3654 18.6884 11.342 18.5747C11.3194 18.4601 11.3081 18.3446 11.3081 18.2283C11.3081 18.1111 11.3194 17.9957 11.342 17.8811C11.3654 17.7674 11.3984 17.6563 11.4435 17.5486C11.4878 17.4401 11.5425 17.3386 11.6076 17.2413C11.6727 17.1441 11.7456 17.0547 11.8281 16.9722C11.9105 16.8898 12.0008 16.816 12.0972 16.7509C12.1944 16.6866 12.2968 16.632 12.4045 16.5868C12.5121 16.5425 12.6232 16.5087 12.7378 16.4861C12.8524 16.4636 12.9678 16.4523 13.0841 16.4523C13.2005 16.4523 13.3168 16.4636 13.4305 16.4861C13.5451 16.5087 13.6562 16.5425 13.7638 16.5868C13.8715 16.632 13.9739 16.6866 14.0711 16.7509C14.1683 16.816 14.2578 16.8898 14.3402 16.9722C14.4227 17.0547 14.4965 17.1441 14.5607 17.2413C14.6258 17.3386 14.6805 17.4401 14.7248 17.5486C14.7699 17.6563 14.8038 17.7674 14.8263 17.8811C14.8489 17.9957 14.8602 18.1111 14.8602 18.2283Z" fill="#FF9561"/>
<path d="M28.514 18.2283C28.514 18.3446 28.5027 18.4601 28.4793 18.5747C28.4567 18.6884 28.4229 18.7995 28.3786 18.908C28.3343 19.0156 28.2796 19.1181 28.2145 19.2144C28.1494 19.3116 28.0765 19.4011 27.994 19.4835C27.9116 19.566 27.8213 19.6398 27.7249 19.7049C27.6277 19.7691 27.5253 19.8238 27.4176 19.8689C27.31 19.9132 27.1989 19.9471 27.0843 19.9696C26.9697 19.9922 26.8543 20.0044 26.738 20.0044C26.6208 20.0044 26.5053 19.9922 26.3916 19.9696C26.277 19.9471 26.1659 19.9132 26.0583 19.8689C25.9506 19.8238 25.8482 19.7691 25.751 19.7049C25.6538 19.6398 25.5643 19.566 25.4819 19.4835C25.3994 19.4011 25.3256 19.3116 25.2614 19.2144C25.1963 19.1181 25.1416 19.0156 25.0973 18.908C25.0522 18.7995 25.0183 18.6884 24.9958 18.5747C24.9732 18.4601 24.9619 18.3446 24.9619 18.2283C24.9619 18.1111 24.9732 17.9957 24.9958 17.8811C25.0183 17.7674 25.0522 17.6563 25.0973 17.5486C25.1416 17.4401 25.1963 17.3386 25.2614 17.2413C25.3256 17.1441 25.3994 17.0547 25.4819 16.9722C25.5643 16.8898 25.6538 16.816 25.751 16.7509C25.8482 16.6866 25.9506 16.632 26.0583 16.5868C26.1659 16.5425 26.277 16.5087 26.3916 16.4861C26.5053 16.4636 26.6208 16.4523 26.738 16.4523C26.8543 16.4523 26.9697 16.4636 27.0843 16.4861C27.1989 16.5087 27.31 16.5425 27.4176 16.5868C27.5253 16.632 27.6277 16.6866 27.7249 16.7509C27.8213 16.816 27.9116 16.8898 27.994 16.9722C28.0765 17.0547 28.1494 17.1441 28.2145 17.2413C28.2796 17.3386 28.3343 17.4401 28.3786 17.5486C28.4229 17.6563 28.4567 17.7674 28.4793 17.8811C28.5027 17.9957 28.514 18.1111 28.514 18.2283Z" fill="#FF9561"/>
<path d="M20.0018 8.79254C20.2283 8.79254 20.454 8.80383 20.6797 8.8264C20.9045 8.8481 21.1285 8.88195 21.3507 8.92535C21.5729 8.96962 21.7926 9.02518 22.0096 9.09028C22.2266 9.15626 22.4393 9.23265 22.6485 9.31945C22.8577 9.40626 23.0625 9.50261 23.2622 9.60938C23.4618 9.71615 23.6563 9.83247 23.8446 9.95834C24.033 10.0842 24.2144 10.2196 24.3898 10.3629C24.5651 10.507 24.7327 10.6589 24.8924 10.8186C25.053 10.9792 25.2049 11.1467 25.3481 11.3221C25.4922 11.4965 25.6268 11.6788 25.7526 11.8672C25.8785 12.0556 25.9948 12.2491 26.1016 12.4497C26.2084 12.6493 26.3056 12.8533 26.3924 13.0634C26.4783 13.2726 26.5547 13.4852 26.6207 13.7023C26.6867 13.9193 26.7413 14.138 26.7856 14.3602C26.8299 14.5825 26.8629 14.8064 26.8854 15.0321C26.9071 15.2578 26.9184 15.4835 26.9184 15.7101V17.4983C26.9184 17.7248 26.9071 17.9505 26.8854 18.1762C26.8629 18.4019 26.8299 18.625 26.7856 18.8472C26.7413 19.0695 26.6867 19.2891 26.6207 19.5061C26.5547 19.7231 26.4783 19.9358 26.3924 20.145C26.3056 20.3542 26.2084 20.559 26.1016 20.7587C25.9948 20.9583 25.8785 21.1528 25.7526 21.3412C25.6268 21.5295 25.4922 21.7109 25.3481 21.8863C25.2049 22.0616 25.053 22.2292 24.8924 22.3889C24.7327 22.5495 24.5651 22.7014 24.3898 22.8455C24.2144 22.9887 24.033 23.1233 23.8446 23.2491C23.6563 23.375 23.4618 23.4913 23.2622 23.5981C23.0625 23.7057 22.8577 23.8021 22.6485 23.8889C22.4393 23.9757 22.2266 24.0521 22.0096 24.1172C21.7926 24.1832 21.5729 24.2379 21.3507 24.2821C21.1285 24.3264 20.9045 24.3594 20.6797 24.382C20.454 24.4045 20.2283 24.4149 20.0018 24.4149C19.7752 24.4149 19.5486 24.4045 19.3238 24.382C19.0981 24.3594 18.8742 24.3264 18.6519 24.2821C18.4297 24.2379 18.2101 24.1832 17.9931 24.1172C17.7769 24.0521 17.5634 23.9757 17.3542 23.8889C17.145 23.8021 16.9401 23.7057 16.7405 23.5981C16.5408 23.4913 16.3472 23.375 16.1589 23.2491C15.9705 23.1233 15.7882 22.9887 15.6129 22.8455C15.4384 22.7014 15.2709 22.5495 15.1103 22.3889C14.9505 22.2292 14.7978 22.0616 14.6545 21.8863C14.5104 21.7109 14.3759 21.5295 14.25 21.3412C14.1242 21.1528 14.0078 20.9583 13.9011 20.7587C13.7943 20.559 13.6979 20.3542 13.6111 20.145C13.5243 19.9358 13.4479 19.7231 13.382 19.5061C13.316 19.2891 13.2613 19.0695 13.217 18.8472C13.1728 18.625 13.1398 18.4019 13.1172 18.1762C13.0955 17.9505 13.0842 17.7248 13.0842 17.4983V15.7101C13.0842 15.4835 13.0955 15.2578 13.1172 15.0321C13.1398 14.8064 13.1728 14.5825 13.217 14.3602C13.2613 14.138 13.316 13.9193 13.382 13.7023C13.4479 13.4852 13.5243 13.2726 13.6111 13.0634C13.6979 12.8533 13.7943 12.6493 13.9011 12.4497C14.0078 12.2491 14.1242 12.0556 14.25 11.8672C14.3759 11.6788 14.5104 11.4965 14.6545 11.3221C14.7978 11.1467 14.9505 10.9792 15.1103 10.8186C15.2709 10.6589 15.4384 10.507 15.6129 10.3629C15.7882 10.2196 15.9705 10.0842 16.1589 9.95834C16.3472 9.83247 16.5408 9.71615 16.7405 9.60938C16.9401 9.50261 17.145 9.40626 17.3542 9.31945C17.5634 9.23265 17.7769 9.15626 17.9931 9.09028C18.2101 9.02518 18.4297 8.96962 18.6519 8.92535C18.8742 8.88195 19.0981 8.8481 19.3238 8.8264C19.5486 8.80383 19.7752 8.79254 20.0018 8.79254Z" fill="#FFC9AC"/>
<path d="M13.0843 16.4523C22.3751 16.5469 24.9619 11.2847 24.9619 11.2847C24.9619 11.2847 25.4012 15.4948 26.9185 16.6042C27.7128 12.1875 25.3812 8.16668 19.3317 7.86546C13.2814 7.56512 11.6477 14.4783 13.0843 16.4523Z" fill="#002C5C"/>
</svg>
