<svg width="70" height="79" viewBox="0 0 70 79" fill="none" xmlns="http://www.w3.org/2000/svg">
<mask id="mask0_3_655" style="mask-type:luminance" maskUnits="userSpaceOnUse" x="0" y="5" width="70" height="74">
<path d="M0 5.8559H70V78.5834H0V5.8559Z" fill="white"/>
</mask>
<g mask="url(#mask0_3_655)">
<path d="M67.5 78.5835H9C4.03646 78.5835 0 74.5569 0 69.6015V8.36011C0 7.0077 1.11979 5.91046 2.5 5.91046C3.88021 5.91046 5 7.0077 5 8.36011C5 10.1599 6.49305 11.6263 8.33333 11.6263H67.5C68.8802 11.6263 70 12.7236 70 14.076V76.1339C70 77.4863 68.8802 78.5835 67.5 78.5835Z" fill="white"/>
</g>
<mask id="mask1_3_655" style="mask-type:luminance" maskUnits="userSpaceOnUse" x="0" y="0" width="64" height="17">
<path d="M0 0.194458H63.4444V16.7432H0V0.194458Z" fill="white"/>
</mask>
<g mask="url(#mask1_3_655)">
<path d="M60.8333 16.5255H8.33333C3.73611 16.5255 0 12.8612 0 8.35997C0 3.85873 3.73611 0.194458 8.33333 0.194458H60.8333C62.2135 0.194458 63.3333 1.2917 63.3333 2.64411V14.0758C63.3333 15.4282 62.2135 16.5255 60.8333 16.5255Z" fill="white"/>
</g>
<path d="M8.33333 5.09375C6.49306 5.09375 5 6.56014 5 8.35995C5 10.1598 6.49306 11.6262 8.33333 11.6262H58.3333V5.09375H8.33333Z" fill="#CE68F2"/>
<path d="M36.6667 45.9213C31.1529 45.9213 26.6667 41.5256 26.6667 36.1227C26.6667 30.7199 31.1529 26.3241 36.6667 26.3241C42.1806 26.3241 46.6667 30.7199 46.6667 36.1227C46.6667 41.5256 42.1806 45.9213 36.6667 45.9213Z" fill="#CE68F2"/>
<path d="M50.8333 65.5185H22.5C21.1198 65.5185 20 64.4213 20 63.0689V58.1696C20 53.2141 24.1094 49.1875 29.1667 49.1875H44.1667C49.224 49.1875 53.3333 53.2141 53.3333 58.1696V63.0689C53.3333 64.4213 52.2135 65.5185 50.8333 65.5185Z" fill="#CE68F2"/>
</svg>
