<svg width="41" height="40" viewBox="0 0 41 40" fill="none" xmlns="http://www.w3.org/2000/svg">
<mask id="mask0_3_612" style="mask-type:luminance" maskUnits="userSpaceOnUse" x="0" y="0" width="41" height="40">
<path d="M0 0H40.1352V40H0V0Z" fill="white"/>
</mask>
<g mask="url(#mask0_3_612)">
<path d="M40.1071 19.973C40.108 20.2991 40.0999 20.6262 40.0837 20.9524C40.0674 21.2785 40.044 21.6047 40.0116 21.9291C39.98 22.2543 39.9395 22.5787 39.8917 22.9022C39.844 23.2247 39.7881 23.5473 39.7241 23.8672C39.6611 24.1879 39.589 24.5069 39.5097 24.8232C39.4304 25.1403 39.343 25.4548 39.2484 25.7674C39.1538 26.0801 39.0511 26.3909 38.9412 26.6982C38.8312 27.0054 38.7141 27.3109 38.5889 27.6127C38.4636 27.9146 38.3312 28.2128 38.1915 28.5083C38.0518 28.8039 37.9059 29.0958 37.7518 29.3832C37.5977 29.6716 37.4365 29.9563 37.2689 30.2365C37.1004 30.5167 36.9256 30.7924 36.7445 31.0636C36.5634 31.3358 36.375 31.6025 36.1804 31.8656C35.9858 32.1278 35.7849 32.3854 35.5776 32.6377C35.3704 32.89 35.1569 33.1378 34.9379 33.3793C34.7181 33.6216 34.4928 33.8586 34.2621 34.0893C34.0315 34.3199 33.7945 34.5452 33.5521 34.765C33.3107 34.984 33.0629 35.1975 32.8106 35.4048C32.5583 35.612 32.3006 35.8129 32.0384 36.0076C31.7762 36.2022 31.5086 36.3905 31.2374 36.5725C30.9653 36.7536 30.6896 36.9284 30.4094 37.0969C30.1292 37.2645 29.8453 37.4258 29.557 37.5798C29.2687 37.7339 28.9767 37.8808 28.6821 38.0204C28.3866 38.1601 28.0883 38.2925 27.7865 38.4169C27.4847 38.5421 27.1792 38.6602 26.872 38.7701C26.5647 38.88 26.2539 38.9827 25.9412 39.0773C25.6285 39.1719 25.3141 39.2593 24.9969 39.3386C24.6807 39.4179 24.3617 39.49 24.0409 39.5531C23.7211 39.6171 23.3994 39.6729 23.076 39.7207C22.7525 39.7693 22.4281 39.809 22.1037 39.8414C21.7785 39.8729 21.4523 39.8973 21.1261 39.9135C20.8 39.9288 20.4738 39.9369 20.1467 39.9369C19.8197 39.9369 19.4935 39.9288 19.1673 39.9135C18.8411 39.8973 18.515 39.8729 18.1897 39.8414C17.8644 39.809 17.541 39.7693 17.2175 39.7216C16.894 39.6729 16.5724 39.6171 16.2525 39.554C15.9317 39.49 15.6128 39.4188 15.2965 39.3395C14.9794 39.2593 14.664 39.1728 14.3513 39.0782C14.0387 38.9827 13.7287 38.8809 13.4215 38.7701C13.1133 38.6602 12.8088 38.543 12.507 38.4178C12.2051 38.2925 11.9069 38.1601 11.6113 38.0204C11.3158 37.8808 11.0248 37.7339 10.7364 37.5807C10.4481 37.4267 10.1643 37.2654 9.88408 37.0978C9.60386 36.9293 9.32725 36.7545 9.05604 36.5734C8.78393 36.3914 8.51723 36.204 8.25503 36.0094C7.99283 35.8147 7.73514 35.6138 7.48195 35.4066C7.22967 35.1993 6.98279 34.9858 6.74041 34.7659C6.49804 34.547 6.26197 34.3217 6.03041 34.0902C5.79974 33.8595 5.57449 33.6225 5.35554 33.3811C5.13569 33.1387 4.92215 32.8918 4.71491 32.6386C4.50768 32.3863 4.30675 32.1287 4.11213 31.8665C3.91751 31.6043 3.73009 31.3367 3.54809 31.0654C3.36698 30.7933 3.19218 30.5176 3.02369 30.2374C2.8561 29.9572 2.69482 29.6734 2.54074 29.385C2.38667 29.0967 2.2398 28.8048 2.10014 28.5101C1.96049 28.2146 1.82894 27.9155 1.70369 27.6136C1.57845 27.3118 1.46132 27.0072 1.35049 26.7C1.24057 26.3918 1.13875 26.0819 1.04324 25.7692C0.948637 25.4566 0.861238 25.1421 0.781948 24.825C0.702658 24.5078 0.631477 24.1897 0.567505 23.869C0.503532 23.5491 0.447669 23.2266 0.399915 22.904C0.352161 22.5805 0.312516 22.2561 0.280079 21.9309C0.248543 21.6065 0.224215 21.2803 0.207997 20.9542C0.191778 20.628 0.18457 20.3009 0.18457 19.9748C0.18457 19.6477 0.19268 19.3215 0.207997 18.9953C0.224215 18.6683 0.248543 18.343 0.280079 18.0177C0.312516 17.6925 0.352161 17.369 0.400816 17.0455C0.44857 16.7221 0.504433 16.4004 0.568406 16.0796C0.631477 15.7598 0.703559 15.4408 0.782849 15.1237C0.862139 14.8074 0.949539 14.492 1.04415 14.1794C1.13875 13.8667 1.24147 13.5568 1.35139 13.2495C1.46132 12.9414 1.57935 12.6368 1.7046 12.335C1.82894 12.0331 1.96139 11.7349 2.10105 11.4394C2.2407 11.1438 2.38757 10.8528 2.54165 10.5645C2.69572 10.2762 2.857 9.99233 3.02459 9.71211C3.19308 9.43189 3.36788 9.15528 3.54899 8.88407C3.731 8.61196 3.91931 8.34526 4.11393 8.08306C4.30855 7.82086 4.50948 7.56317 4.71671 7.31089C4.92395 7.0577 5.13749 6.81082 5.35644 6.56844C5.57629 6.32697 5.80155 6.09 6.03221 5.85934C6.26287 5.62778 6.49984 5.40342 6.74221 5.18357C6.98369 4.96462 7.23147 4.75108 7.48375 4.54385C7.73604 4.33661 7.99373 4.13568 8.25683 3.94106C8.51903 3.74644 8.78573 3.55813 9.05784 3.37702C9.32905 3.19501 9.60476 3.02022 9.88588 2.85263C10.1661 2.68504 10.4499 2.52375 10.7382 2.36968C11.0266 2.2156 11.3176 2.06874 11.6131 1.92908C11.9087 1.78942 12.2069 1.65787 12.5088 1.53263C12.8106 1.40739 13.116 1.29025 13.4233 1.18033C13.7305 1.0695 14.0414 0.967686 14.3541 0.873079C14.6667 0.77757 14.9812 0.691072 15.2983 0.611782C15.6146 0.532492 15.9335 0.46041 16.2543 0.397339C16.5742 0.333366 16.8967 0.277503 17.2193 0.229748C17.5428 0.181994 17.8671 0.141448 18.1924 0.109912C18.5168 0.0774756 18.8429 0.0540489 19.1691 0.0378306C19.4953 0.0216123 19.8224 0.013503 20.1485 0.013503C20.4756 0.012602 20.8027 0.0198101 21.1288 0.0342265C21.4559 0.0495438 21.7821 0.0720696 22.1074 0.103605C22.4326 0.13424 22.757 0.173885 23.0805 0.220738C23.4048 0.267591 23.7265 0.322554 24.0473 0.385625C24.368 0.448697 24.6879 0.518977 25.005 0.597366C25.3222 0.676656 25.6376 0.763154 25.9502 0.85686C26.2638 0.951468 26.5746 1.05328 26.8819 1.16231C27.19 1.27223 27.4955 1.38936 27.7982 1.51371C28.1001 1.63805 28.3992 1.7705 28.6947 1.90925C28.9912 2.04891 29.2831 2.19578 29.5714 2.34895C29.8598 2.50303 30.1445 2.66341 30.4256 2.8319C30.7058 2.99949 30.9824 3.17429 31.2545 3.3554C31.5266 3.5365 31.7942 3.72482 32.0564 3.91944C32.3195 4.11406 32.5772 4.31499 32.8295 4.52222C33.0827 4.72946 33.3305 4.943 33.5729 5.16285C33.8152 5.3818 34.0522 5.60705 34.2829 5.83861C34.5144 6.07018 34.7397 6.30625 34.9586 6.54862C35.1785 6.791 35.392 7.03878 35.5993 7.29196C35.8065 7.54425 36.0074 7.80194 36.202 8.06504C36.3967 8.32814 36.585 8.59484 36.7661 8.86695C36.9472 9.13906 37.122 9.41567 37.2896 9.69589C37.4581 9.97701 37.6185 10.2617 37.7725 10.5501C37.9257 10.8384 38.0726 11.1303 38.2122 11.4268C38.351 11.7223 38.4834 12.0214 38.6078 12.3233C38.7321 12.626 38.8493 12.9315 38.9592 13.2396C39.0682 13.5469 39.17 13.8577 39.2646 14.1713C39.3583 14.4839 39.4448 14.7993 39.5232 15.1164C39.6025 15.4336 39.6728 15.7535 39.7359 16.0742C39.7989 16.395 39.8539 16.7167 39.9007 17.041C39.9476 17.3645 39.9872 17.6889 40.0179 18.0141C40.0494 18.3394 40.0719 18.6656 40.0873 18.9926C40.1017 19.3188 40.1089 19.6459 40.1071 19.973Z" fill="#3998FF"/>
</g>
<path d="M35.5453 32.681C35.3101 32.9666 35.0668 33.245 34.8154 33.5171C34.564 33.7893 34.3054 34.0542 34.0396 34.3119C33.7738 34.5686 33.5008 34.8191 33.2215 35.0615C32.9413 35.3039 32.6548 35.5381 32.3619 35.7652C32.0691 35.9914 31.77 36.2094 31.4654 36.4193C31.16 36.6293 30.85 36.8302 30.5338 37.023C30.2175 37.2158 29.8958 37.3997 29.5697 37.5745C29.2435 37.7493 28.9119 37.9141 28.5767 38.0709C28.2407 38.2268 27.901 38.3737 27.5577 38.5115C27.2135 38.6485 26.8666 38.7764 26.5152 38.8945C26.1647 39.0125 25.8106 39.1206 25.4538 39.2197C25.097 39.3179 24.7375 39.4062 24.3762 39.4846C24.014 39.563 23.65 39.6315 23.2841 39.6892C22.9192 39.7477 22.5516 39.7955 22.184 39.8333C21.8155 39.8712 21.4461 39.8982 21.0766 39.9162C20.7063 39.9333 20.3369 39.9396 19.9666 39.9369C19.5963 39.9333 19.2268 39.9198 18.8565 39.8955C18.4871 39.8721 18.1186 39.8378 17.7519 39.7928C17.3842 39.7486 17.0175 39.6946 16.6535 39.6297C16.2886 39.5648 15.9264 39.49 15.566 39.4044C15.2056 39.3197 14.8479 39.2251 14.4929 39.1197C14.1379 39.0152 13.7856 38.9008 13.4369 38.7764C13.0882 38.6512 12.744 38.5178 12.4025 38.3737C12.061 38.2304 11.724 38.0772 11.3915 37.915C11.0591 37.7529 10.7311 37.5808 10.4076 37.4006C10.0842 37.2195 9.76609 37.0302 9.45344 36.832C9.14078 36.6338 8.83444 36.4266 8.53349 36.2112C8.23165 35.9959 7.93702 35.7724 7.64869 35.5408C7.35946 35.3093 7.07744 35.0696 6.80263 34.8218C6.52692 34.5749 6.25841 34.32 5.99712 34.0569C5.73672 33.7947 5.48263 33.5253 5.23665 33.2486C4.99067 32.972 4.7519 32.6891 4.52124 32.399C6.64765 29.367 9.9445 27.2632 16.8752 27.1848C24.8744 27.0884 30.759 26.7964 33.1891 29.4851C34.0739 30.4771 34.8596 31.5421 35.5453 32.681Z" fill="white"/>
<path d="M13.535 14.9389C9.69758 13.5514 10.3229 8.48852 10.868 8.3795C11.4122 8.27048 12.5818 9.1688 12.6367 9.19583C12.6917 9.22286 12.3646 6.93696 13.0998 5.87556C13.8351 4.81415 16.6382 6.96399 18.7889 6.99103C20.9387 7.01896 26.1376 7.15501 27.6622 8.51556C29.1858 9.877 28.3947 12.7891 28.3947 12.7891C28.3947 12.7891 30.1391 13.2513 29.785 15.7012C29.43 18.1511 26.6819 20.255 25.7015 22.0201C24.7212 23.7852 18.9015 24.1123 17.9987 21.5534" fill="#14213D"/>
<path d="M19.8567 30.1347C17.0671 30.1347 16.6563 27.8056 16.6455 27.4118C16.6455 27.3668 16.6392 27.2884 16.6455 27.1812C16.6392 26.9622 16.6392 26.6243 16.6392 26.2306C16.6509 25.1674 16.6617 23.6996 16.6455 23.0689L21.9723 21.1623L22.94 20.8136L24.014 20.4307C24.014 20.4307 24.0086 20.6388 23.9978 20.9821C23.9915 21.1794 23.9861 21.4209 23.9807 21.6966C23.9816 21.7291 23.9798 21.7615 23.9753 21.793C23.969 22.1922 23.9636 22.6481 23.9528 23.1266C23.9356 24.6286 23.9302 26.3162 24.0086 26.9235C24.1546 28.1038 22.6472 30.1347 19.8567 30.1347Z" fill="#FFB5A6"/>
<path d="M24.0194 21.7083C24.0068 21.7372 23.9915 21.7651 23.9744 21.7921C22.084 25.6791 19.2431 27.2208 16.6446 27.1812C16.6392 26.9622 16.6392 26.6243 16.6392 26.2306C16.65 25.1674 16.6617 23.6996 16.6446 23.0689L21.9714 21.1623L23.9798 21.6966L24.0194 21.7083Z" fill="#E86B70"/>
<path d="M13.4297 11.4826C16.5329 15.203 24.1961 14.5308 24.1961 14.5308C24.1961 14.5308 24.342 18.8863 25.1034 18.8503C25.8657 18.8134 25.9927 16.4004 27.8623 16.8005C29.731 17.1996 28.5696 20.8109 27.1181 21.0101C25.6665 21.2092 25.3034 19.9757 25.3034 19.9757C25.3034 19.9757 22.6265 25.2836 18.3809 25.2836C14.1343 25.2836 13.0477 21.2128 13.0729 18.9954C13.0982 16.7779 13.4297 11.4826 13.4297 11.4826Z" fill="#FFB5A6"/>
</svg>
